<?xml version="1.0" encoding="utf-8"?>
<!-- Generator: Adobe Illustrator 21.1.0, SVG Export Plug-In . SVG Version: 6.00 Build 0)  -->
<svg version="1.1" id="Layer_1" xmlns="http://www.w3.org/2000/svg" xmlns:xlink="http://www.w3.org/1999/xlink" x="0px" y="0px"
	 viewBox="0 0 581 185" style="enable-background:new 0 0 581 185;" xml:space="preserve">
<style type="text/css">
	.st0{fill:#E5E8EC;}
</style>
<path class="st0" d="M581,184.6c-1.3-3.7-3.9-5.2-7.6-7.4c-1.7-1.1-3.5-1.8-5.5-2.2c1.3-1.3,2.6-2.8,3.5-4.4
	c6.7-10.9,3.5-25.1-7.4-31.8c-9.8-6.1-22.2-3.9-29.6,4.3c-1.5-3.1-3.9-5.9-7-7.9c-4.3-2.6-9.2-3.3-13.9-2.4
	c4.1-10.7,0.2-22.9-10-29.2c-5.9-3.7-12.9-4.4-19.2-2.8c-0.6-5.9-3.9-11.6-9.4-15.2c-8.3-5.2-18.9-3.7-25.3,3.1
	c-1.8-4.6-5-8.5-9.6-11.5c-7.9-5-17.7-4.6-25.1-0.2c2.4-9.6-1.5-20-10.2-25.3c-10-6.3-22.7-3.9-30.1,5c-0.4-0.4-0.9-0.6-1.3-0.9
	c-4.6-3-10.2-3.3-14.8-1.7c-0.7-7.2-4.8-14-11.5-18.3c-6.7-4.1-14.6-4.6-21.3-2.2c-0.6-11.1-6.3-21.8-16.5-28.1
	c-5.9-3.7-12.6-5.4-19-5.2c-6.3,0-12.8,1.7-18.5,5.2c-10.2,6.3-15.9,17-16.5,28.1c-6.8-2.4-14.6-2-21.3,2.2
	c-6.7,4.1-10.7,10.9-11.5,18.3c-4.8-1.7-10.2-1.3-14.8,1.7c-0.4,0.4-0.9,0.6-1.3,0.9c-7.2-8.9-20.1-11.1-30.1-5
	c-8.9,5.5-12.6,15.9-10.2,25.3c-7.6-4.6-17.2-4.8-25.1,0.2c-4.4,2.8-7.8,6.8-9.6,11.5c-6.5-6.7-17-8.3-25.3-3.1
	c-5.5,3.5-8.9,9.1-9.4,15.2c-6.3-1.7-13.3-0.9-19.2,2.8c-10,6.3-13.9,18.7-10,29.2c-4.6-1.1-9.4-0.4-13.9,2.4c-3.1,2-5.5,4.8-7,7.9
	c-7.4-8.3-19.8-10.4-29.6-4.3c-10.9,6.7-14.2,20.9-7.4,31.8c1.1,1.7,2.2,3.1,3.5,4.4c-1.8,0.4-3.7,1.1-5.5,2.2
	c-3.7,2.2-6.1,3.7-7.6,7.4"/>
</svg>
