<?xml version="1.0" encoding="utf-8"?>
<!-- Generator: Adobe Illustrator 21.1.0, SVG Export Plug-In . SVG Version: 6.00 Build 0)  -->
<svg version="1.1" id="Layer_1" xmlns="http://www.w3.org/2000/svg" xmlns:xlink="http://www.w3.org/1999/xlink" x="0px" y="0px"
	 viewBox="0 0 463 162" style="enable-background:new 0 0 463 162;" xml:space="preserve">
<style type="text/css">
	.st0{fill:#FFFFFF;}
</style>
<path class="st0" d="M461.6,161.5c2.9-7.6,0-16.4-7.1-20.9c-6-3.8-13.4-3.3-18.9,0.4c-0.9-2.5-2.5-4.7-4.9-6.4
	c-0.9-0.5-1.6-0.9-2.5-1.1c1.3-0.9,2.4-2,3.3-3.5c3.5-5.5,1.8-12.7-3.8-16.2c-2.9-1.8-6.4-2.2-9.3-1.3c4-7.8,1.6-17.4-6-22.2
	c-4.2-2.5-8.9-3.1-13.3-2c-0.5-3.8-2.5-7.5-6.2-9.8c-5.6-3.5-12.9-2.2-17.1,2.7c-0.7-2.9-2.5-5.5-5.1-7.1
	c-5.5-3.5-12.7-1.8-16.2,3.8l0,0c-1.3-3.3-3.6-6.2-6.7-8.2c-5.3-3.3-11.6-3.3-16.7-0.5c0.2-7.1-3.3-14-9.6-17.8
	c-9.6-6-22.2-3.1-28,6.5c-0.4,0.5-0.7,1.1-0.9,1.6c-1.1-1.6-2.5-2.9-4.2-4c-3.8-2.4-8.2-2.7-12.2-1.5c1.5-7.3-1.5-14.9-8.2-18.9
	c-2.5-1.6-5.3-2.4-8.2-2.7l-0.5-1.1c0.2-1.5,0.4-2.9,0.4-4.5c0-14.7-12-26.5-26.5-26.5c-14.7,0-26.5,11.8-26.5,26.5l-3.3,5.5
	c-2.9,0.2-5.8,1.1-8.4,2.7c-6.5,4.2-9.6,11.8-8.2,18.9c-4-1.3-8.4-0.9-12.2,1.5c-1.6,1.1-3.1,2.4-4.2,4c-0.4-0.5-0.5-1.1-0.9-1.6
	c-6-9.6-18.5-12.5-28-6.5c-6.4,4-9.8,10.9-9.6,17.8c-5.1-2.7-11.4-2.7-16.7,0.5c-3.3,2-5.5,4.9-6.7,8.2l0,0
	c-3.5-5.5-10.7-7.3-16.2-3.8c-2.7,1.6-4.4,4.2-5.1,7.1C83,76.3,75.8,75,70.1,78.5c-3.6,2.2-5.6,5.8-6.2,9.8c-4.4-1.3-9.3-0.5-13.3,2
	c-7.6,4.7-10,14.4-6,22.2c-3.1-0.9-6.4-0.5-9.3,1.3c-5.5,3.5-7.3,10.7-3.8,16.2c0.9,1.5,2,2.5,3.3,3.5c-0.9,0.4-1.8,0.7-2.5,1.1
	c-2.4,1.5-4,3.8-4.9,6.4c-5.5-3.8-12.9-4.2-18.9-0.4c-7.3,4.5-10,13.4-7.1,21.1C1.4,161.5,461.6,161.5,461.6,161.5z"/>
</svg>
